PathFileType	4	(X/Y/Z)	C:\Users\Basilio\Documents\Thesis Gigler\squatting_fais\c3dfiles\047\SJ_pre5\markers_experimental.trc
DataRate	CameraRate	NumFrames	NumMarkers	Units	OrigDataRate	OrigDataStartFrame	OrigNumFrames
200.000000	200.000000	4	61	mm	200.000000	0	1393
Frame#	Time	FHD			LBHD			RBHD			C7			T10			CLAV			LSHO			LUUPA			LMUPA			LDUPA			LLEP			LMEP			LRAD			LUL			LRFIN			RSHO			RUPA1			RMUPA			RDUPA			RLEP			RMEP			RRAD			RUL			RUFIN			LASI			RASI			USACR			LSACR			RSACR			LTHI1			LTHI2			LTHI3			LTHI4			LLFC			LMFC			LTIB1			LTIB2			LTIB3			LTIB4			LLMAL			LMMAL			LMT1			LMT2			LMT5			RTHI			RTHI2			RTHI3			RTHI4			RLFC			RMFC			RTIB1			RTIB2			RTIB3			RTIB4			RLMAL			RMMAL			RHEE			RMT1			RMT2			RMT5			*60			
		X1	Y1	Z1	X2	Y2	Z2	X3	Y3	Z3	X4	Y4	Z4	X5	Y5	Z5	X6	Y6	Z6	X7	Y7	Z7	X8	Y8	Z8	X9	Y9	Z9	X10	Y10	Z10	X11	Y11	Z11	X12	Y12	Z12	X13	Y13	Z13	X14	Y14	Z14	X15	Y15	Z15	X16	Y16	Z16	X17	Y17	Z17	X18	Y18	Z18	X19	Y19	Z19	X20	Y20	Z20	X21	Y21	Z21	X22	Y22	Z22	X23	Y23	Z23	X24	Y24	Z24	X25	Y25	Z25	X26	Y26	Z26	X27	Y27	Z27	X28	Y28	Z28	X29	Y29	Z29	X30	Y30	Z30	X31	Y31	Z31	X32	Y32	Z32	X33	Y33	Z33	X34	Y34	Z34	X35	Y35	Z35	X36	Y36	Z36	X37	Y37	Z37	X38	Y38	Z38	X39	Y39	Z39	X40	Y40	Z40	X41	Y41	Z41	X42	Y42	Z42	X43	Y43	Z43	X44	Y44	Z44	X45	Y45	Z45	X46	Y46	Z46	X47	Y47	Z47	X48	Y48	Z48	X49	Y49	Z49	X50	Y50	Z50	X51	Y51	Z51	X52	Y52	Z52	X53	Y53	Z53	X54	Y54	Z54	X55	Y55	Z55	X56	Y56	Z56	X57	Y57	Z57	X58	Y58	Z58	X59	Y59	Z59	X60	Y60	Z60	X61	Y61	Z61	

1	0	-84.04640197753908	1659.137939453125	-891.344665527344	-248.0137481689454	1669.938842773438	-970.9749145507815	-269.4715881347657	1674.539184570313	-823.6101684570315	-354.6441345214844	1497.434692382813	-900.2088012695315	-380.4082641601563	1173.256591796875	-900.515319824219	-199.1184692382813	1437.923217773438	-895.514587402344	-264.5102844238282	1470.01611328125	-1073.960571289063	-360.2770690917969	1345.605834960938	-1199.429565429688	-318.4137268066407	1323.363403320313	-1220.113159179688	-364.7337341308594	1290.603393554688	-1242.5634765625	-346.4497375488282	1226.466918945313	-1276.372802734375	-404.7257385253907	1195.271606445313	-1205.224731445313	-249.4315490722657	1072.922241210938	-1095.62060546875	-205.4281768798829	1042.749877929688	-1151.7861328125	-192.4339752197266	1071.789672851563	-1055.466796875	-284.7896423339844	1480.775024414063	-731.5966796875001	-405.1757202148439	1360.987060546875	-608.8198242187501	-371.7757263183594	1332.565307617188	-585.4355468750001	-421.7739562988282	1305.919799804688	-568.1841430664064	-413.1129455566407	1237.831176757813	-534.2041015625001	-465.2159729003907	1207.29345703125	-605.7395019531251	-277.8699645996094	1090.650512695313	-695.5796508789064	-255.666244506836	1055.598388671875	-633.0211181640626	-216.2139282226563	1076.119873046875	-720.4071044921876	-190.5288543701172	952.9751586914065	-1004.242309570313	-207.4394531250001	954.449157714844	-773.6672973632815	-380.4683837890626	1036.918212890625	-904.8542480468752	-384.967498779297	1007.402465820313	-933.7503051757815	-389.8431091308595	1006.064392089844	-875.4733886718752	-296.4212036132813	815.061706542969	-1094.477783203125	-269.3690490722657	735.7947998046876	-1106.881225585938	-220.7296295166016	734.4653320312501	-1097.572021484375	-302.2461853027344	684.7997436523439	-1108.525390625	-340.6214904785157	511.5781860351564	-1096.338745117188	-293.3165893554688	480.451873779297	-987.386169433594	-302.9096069335938	312.2380676269532	-1051.034790039063	-330.0445556640626	280.9522399902344	-1129.392333984375	-303.8715209960938	270.8903808593751	-1092.104125976563	-313.3503112792969	189.9498138427735	-1075.847534179688	-372.1133728027344	95.83421325683595	-1132.343872070313	-334.3013916015626	102.2087936401367	-1048.96240234375	-211.5371093750001	63.94461059570314	-1100.442016601563	-218.8095397949219	63.79332351684572	-1144.125854492188	-268.3221740722657	42.99225616455079	-1182.417358398438	-331.3057861328126	785.9703369140627	-689.6275634765626	-300.5591430664063	726.9175415039064	-681.7044067382814	-268.1667175292969	725.1157836914064	-684.4288940429689	-335.6238403320313	650.8052368164064	-690.9392700195314	-345.5135803222657	501.2456665039064	-704.2457885742189	-304.1998596191407	489.0710754394532	-817.0840454101565	-308.5965881347657	374.7028808593751	-708.6055297851564	-372.3057250976563	292.3653259277344	-677.8527221679689	-325.8507385253907	293.8500671386719	-683.1026611328126	-308.6269836425782	244.3526611328126	-712.2371215820314	-367.2205200195313	90.34974670410158	-687.6817626953126	-323.6110534667969	104.3189697265625	-769.6243286132815	-408.4744873046876	50.79394149780275	-748.2680053710939	-197.4400024414063	55.40533447265626	-717.2698364257814	-206.5140380859376	59.03222274780275	-673.0911865234376	-262.7450256347657	30.60642051696778	-626.4420166015626	nan	nan	nan	
2	0.005	-84.43603515625001	1659.437622070313	-891.538513183594	-248.4618072509766	1669.986450195313	-971.0526123046877	-269.7475585937501	1674.587890625	-823.7612304687502	-354.8041687011719	1497.434936523438	-900.1811523437502	-380.2004699707032	1173.203002929688	-900.4716796875002	-199.2117309570313	1438.317504882813	-895.461364746094	-264.5317077636719	1470.257568359375	-1073.949340820313	-360.2061157226563	1345.638793945313	-1199.386840820313	-318.3756408691407	1323.449462890625	-1220.052734375	-364.7028198242188	1290.622436523438	-1242.478515625	-346.2128906250001	1226.508911132813	-1276.290283203125	-404.524871826172	1195.27099609375	-1205.14892578125	-249.1388397216797	1073.03466796875	-1095.5361328125	-205.0351715087891	1042.882934570313	-1151.747802734375	-192.1197967529297	1071.876708984375	-1055.360107421875	-284.9535827636719	1481.096557617188	-731.5487060546876	-405.1344604492189	1361.204833984375	-608.7200317382814	-371.7323303222657	1332.773193359375	-585.3108520507814	-421.631317138672	1306.156127929688	-568.1123046875001	-412.8724975585939	1238.0869140625	-534.0795898437501	-465.0473937988282	1207.512329101563	-605.5678710937501	-277.8398437500001	1090.873168945313	-695.4372558593751	-255.5427856445313	1055.899291992188	-632.8870849609376	-216.0383300781251	1076.331665039063	-720.3079833984376	-190.3504638671875	953.022155761719	-1004.127685546875	-207.3209686279297	954.4724121093752	-773.554382324219	-380.3145141601563	1036.897216796875	-904.819030761719	-384.6781005859376	1007.365051269531	-933.7484130859377	-389.6768493652345	1006.061767578125	-875.4609375000002	-296.2070312500001	815.023376464844	-1094.38720703125	-269.2290344238282	735.7844848632814	-1106.827392578125	-220.4723510742188	734.5471191406251	-1097.498779296875	-302.0419006347657	684.8363037109376	-1108.445190429688	-340.4579162597657	511.5747375488282	-1096.271606445313	-293.0670166015626	480.4113769531251	-987.4450683593752	-302.7856140136719	312.2089233398438	-1050.95556640625	-331.5417480468751	280.7278747558594	-1128.3935546875	-303.6276550292969	270.8862304687501	-1092.146606445313	-313.2908325195313	189.8931884765625	-1075.802490234375	-372.0334472656251	95.82968902587892	-1132.254272460938	-334.4157714843751	102.4005584716797	-1049.268920898438	-211.4500732421876	63.93553924560548	-1100.484130859375	-218.7899932861329	63.80405807495119	-1144.109497070313	-268.2444763183594	42.94553375244141	-1182.478393554688	-330.9740295410157	785.9589843750002	-689.5829467773439	-300.3426208496094	726.8848266601564	-681.5327758789064	-267.8723754882813	725.1405029296876	-684.3978881835939	-335.3744812011719	650.7360229492189	-690.9053955078126	-345.2464904785157	501.212615966797	-704.1600341796876	-304.0984497070313	489.082244873047	-817.0157470703127	-308.5069274902344	374.6634826660157	-708.5495605468751	-372.1263122558594	292.3202209472657	-677.7531127929689	-325.7085571289063	293.8284606933594	-683.0927124023439	-308.5133361816407	244.3276824951172	-712.2236328125001	-367.2289123535157	90.28045654296876	-687.7306518554689	-323.6761779785157	104.3365325927735	-769.5755615234377	-408.4285888671876	50.78660202026369	-748.2163085937501	-197.420394897461	55.42223358154298	-717.2587890625001	-206.5652465820313	58.97212219238283	-673.0506591796876	-262.7659301757813	30.59240150451661	-626.4256591796876	nan	nan	nan	
3	0.01	-84.97252655029298	1659.791137695313	-891.4976196289065	-248.9172058105469	1670.0126953125	-971.0927734375002	-270.3808898925782	1674.632202148438	-823.687194824219	-354.9861145019532	1497.418334960938	-900.1181640625002	-380.0871582031251	1173.197509765625	-900.4290161132815	-199.1567535400391	1438.880249023438	-895.5088500976565	-264.6569824218751	1470.472045898438	-1073.94921875	-360.1299743652344	1345.71337890625	-1199.363403320313	-318.3004150390626	1323.543579101563	-1220.015258789063	-364.6117858886719	1290.638427734375	-1242.392578125	-345.9206237792969	1227.052856445313	-1276.949951171875	-404.2492675781251	1195.250610351563	-1205.066284179688	-248.7628326416016	1073.131591796875	-1095.47802734375	-204.8451080322266	1042.9150390625	-1151.701049804688	-191.725830078125	1071.87939453125	-1055.32275390625	-284.9947204589844	1481.389770507813	-731.5378417968751	-405.0558471679689	1361.400512695313	-608.6501464843751	-371.6311950683594	1332.98388671875	-585.2110595703126	-421.5724182128907	1306.395751953125	-568.0260620117189	-412.7483520507814	1238.326293945313	-533.9053344726564	-464.9299316406251	1207.801147460938	-605.4119873046876	-277.7688598632813	1091.126342773438	-695.3378906250001	-255.3570861816407	1056.206787109375	-632.8487548828126	-215.9954833984376	1076.488647460938	-720.1680908203126	-191.5396118164063	953.091247558594	-1003.963928222656	-207.193832397461	954.4634399414065	-773.4944458007815	-380.1597595214844	1036.905517578125	-904.7271728515627	-384.5420837402345	1007.372802734375	-933.707946777344	-389.4857788085939	1006.036560058594	-875.4268188476565	-296.0736083984376	815.0671386718752	-1094.3388671875	-268.7056579589844	736.1418457031251	-1106.86279296875	-220.2685241699219	734.5272827148439	-1097.446411132813	-301.8353576660157	684.7998046875001	-1108.360473632813	-340.2710266113282	511.5394592285157	-1096.20751953125	-293.2534484863282	480.0592651367189	-987.8059082031252	-302.7116088867188	312.1770324707032	-1050.9189453125	-331.5338745117188	280.7006835937501	-1128.315307617188	-303.2825927734376	270.9433898925782	-1092.17138671875	-313.2163391113282	189.8883056640625	-1075.759521484375	-372.0174865722657	95.79998016357423	-1132.181640625	-334.3372802734376	102.1659469604492	-1048.79248046875	-211.3952636718751	63.90288543701173	-1100.514404296875	-218.7520751953126	63.79138183593751	-1144.13818359375	-268.2759399414063	42.97763824462891	-1182.477294921875	-330.7991333007813	785.953063964844	-689.4336547851564	-300.0793762207032	726.8515014648439	-681.4747924804689	-267.6494140625001	725.1511230468751	-684.3479614257814	-335.1654663085938	650.7059326171876	-690.8173828125001	-345.0235290527344	501.1507873535157	-704.1379394531251	-303.9296264648438	489.096160888672	-816.9562988281252	-308.4369812011719	374.6552734375001	-708.4807739257814	-372.0201416015626	292.3099060058594	-677.6724853515626	-325.6773376464844	293.8163146972657	-683.0396728515626	-308.3661804199219	244.3448791503907	-712.2095336914064	-367.1331787109376	90.31778717041017	-687.7134399414064	-323.6483764648438	104.306640625	-769.5664672851565	-408.4714660644532	50.77579498291017	-748.2310791015626	-197.4261627197266	55.44141387939455	-717.2880249023439	-206.5372314453126	58.97335433959962	-673.0488891601564	-262.7527465820313	30.61374664306641	-626.4237060546876	nan	nan	nan	
4	0.015	-85.20940399169923	1660.137573242188	-891.6162719726565	-249.2056579589844	1670.009155273438	-971.1934204101565	-270.7714538574219	1674.7568359375	-823.772399902344	-355.1687622070313	1497.402465820313	-900.120788574219	-379.8678588867188	1173.161865234375	-900.3546142578127	-199.2690124511719	1439.132568359375	-895.4660644531252	-264.7118835449219	1470.690185546875	-1073.908203125	-360.1171264648438	1345.78076171875	-1199.330078125	-318.2748718261719	1323.624755859375	-1219.906127929688	-364.4934997558594	1290.710327148438	-1242.368530273438	-345.7954711914063	1227.150146484375	-1276.851196289063	-403.9710693359376	1195.274047851563	-1204.973388671875	-248.6018218994141	1073.2294921875	-1095.455444335938	-204.6353302001954	1042.949951171875	-1151.690673828125	-191.459457397461	1071.865600585938	-1055.223266601563	-285.0598144531251	1481.674560546875	-731.5153808593751	-404.9650268554689	1361.708251953125	-608.6001586914064	-371.4313049316407	1333.339233398438	-585.1620483398439	-421.4696044921876	1306.642211914063	-567.9849853515626	-412.6378479003907	1238.525390625	-533.7775268554689	-464.7632446289064	1208.0908203125	-605.2583618164064	-277.7629699707032	1091.364990234375	-695.2003784179689	-255.1710662841797	1056.405639648438	-632.6843872070314	-215.8518524169922	1076.754638671875	-720.0202636718751	-191.476303100586	953.059265136719	-1003.908996582031	-206.9755249023438	954.4060668945315	-773.4666137695315	-379.9257202148438	1036.855224609375	-904.6860351562502	-384.3841857910157	1007.386962890625	-933.6158447265627	-389.2671508789064	1006.012268066406	-875.3795166015627	-295.9368591308594	815.0313110351565	-1094.25830078125	-268.5781860351563	736.1203002929689	-1106.792846679688	-220.0632629394532	734.5276489257814	-1097.43115234375	-301.5935363769532	684.8063354492189	-1108.26123046875	-340.0400085449219	511.5510559082032	-1096.152709960938	-293.0896911621094	480.0897827148439	-987.767028808594	-302.6570129394532	312.1136169433594	-1050.82275390625	-331.3882751464844	281.2850341796876	-1128.097534179688	-303.0472717285157	270.9353637695313	-1092.119750976563	-313.1128540039063	189.825912475586	-1075.6591796875	-371.9343872070313	95.80210113525392	-1132.039306640625	-334.3198547363282	102.1167297363282	-1048.694458007813	-211.3500366210938	63.90372848510744	-1100.478881835938	-218.6714630126954	63.83034515380861	-1144.106201171875	-268.2801208496094	43.01473236083985	-1182.473022460938	-330.5984191894532	785.9556274414065	-689.4143676757814	-299.7725830078126	726.4541625976564	-682.1230468750001	-267.5055236816407	725.1555786132814	-684.2324218750001	-335.0167236328126	650.7095947265626	-690.6976928710939	-344.8134460449219	501.1705322265626	-704.1093750000001	-303.8864135742188	489.0592041015626	-816.9099731445315	-308.4093933105469	374.6245117187501	-708.4403076171876	-372.0020446777344	292.3162231445313	-677.6540527343751	-325.6250610351563	293.8010253906251	-682.9903564453126	-308.3633117675782	244.3036193847657	-712.1815185546876	-367.1689147949219	90.29380798339845	-687.7117309570314	-323.7266540527344	104.2852935791016	-769.548278808594	-408.4622802734376	50.7909393310547	-748.2221679687501	-197.1071319580079	55.03770065307619	-717.4588012695314	-206.549545288086	58.9923439025879	-673.0446166992189	-262.7580261230469	30.58389854431153	-626.4125366210939	nan	nan	nan	
